<svg xmlns="http://www.w3.org/2000/svg" xml:space="preserve" width="1.70666in" height="1.70666in" version="1.1" style="shape-rendering:geometricPrecision; text-rendering:geometricPrecision; image-rendering:optimizeQuality; fill-rule:evenodd; clip-rule:evenodd" viewBox="0 0 1707 1707" xmlns:xlink="http://www.w3.org/1999/xlink">
 <defs>
  <style type="text/css">
   
    .fil0 {fill:#004da1}
   
  </style>
 </defs>
 <g id="Layer_x0020_1">
  <metadata id="CorelCorpID_0Corel-Layer"></metadata>
  <g id="_285124168">
   <g>
    <g>
     <path class="fil0" d="M853 1442c-321,0 -583,-261 -583,-583 0,-13 11,-23 23,-23l1120 0c13,0 24,10 24,23 0,322 -262,583 -584,583zm-536 -560c12,285 248,513 536,513 288,0 524,-228 536,-513l-1072 0z" id="id_103"></path>
    </g>
    <g>
     <path class="fil0" d="M853 1352c-235,0 -439,-168 -484,-399 -2,-12 6,-25 19,-27 12,-2 25,6 27,18 41,210 225,362 438,362 13,0 24,10 24,23 0,13 -11,23 -24,23z" id="id_104"></path>
    </g>
    <g>
     <path class="fil0" d="M1444 882l-1181 0c-56,0 -101,-45 -101,-100 0,-56 45,-101 101,-101l1181 0c56,0 101,45 101,101 0,55 -45,100 -101,100zm-1181 -155c-30,0 -55,25 -55,55 0,29 25,54 55,54l1181 0c30,0 54,-25 54,-54 0,-30 -24,-55 -54,-55l-1181 0z" id="id_105"></path>
    </g>
    <g>
     <path class="fil0" d="M983 1707l-259 0c-39,0 -71,-32 -71,-71l0 -246c0,-7 3,-14 9,-19 7,-4 14,-5 21,-3 110,37 231,37 340,0 7,-2 15,-1 21,3 6,5 10,12 10,19l0 246c0,39 -32,71 -71,71zm-284 -285l0 214c0,13 11,24 25,24l259 0c13,0 24,-11 24,-24l0 -214c-100,27 -208,27 -308,0z" id="id_106"></path>
    </g>
    <g>
     <g>
      <path class="fil0" d="M514 727l-157 0c-13,0 -24,-10 -24,-23l0 -90c0,-56 46,-102 103,-102 56,0 102,46 102,102l0 90c0,13 -11,23 -24,23zm-134 -46l111 0 0 -67c0,-30 -25,-55 -55,-55 -31,0 -56,25 -56,55l0 67z" id="id_107"></path>
     </g>
     <g>
      <path class="fil0" d="M1350 727l-158 0c-13,0 -23,-10 -23,-23l0 -90c0,-56 46,-102 102,-102 56,0 102,46 102,102l0 90c0,13 -10,23 -23,23zm-134 -46l111 0 0 -67c0,-30 -25,-55 -56,-55 -30,0 -55,25 -55,55l0 67z" id="id_108"></path>
     </g>
    </g>
    <g>
     <path class="fil0" d="M910 638l-113 0c-13,0 -23,-11 -23,-24l0 -399c0,-31 -25,-56 -56,-56 -31,0 -56,25 -56,56 0,44 -36,80 -80,80 -43,0 -79,-36 -79,-80 0,-118 96,-215 215,-215 118,0 215,97 215,215l0 399c0,13 -11,24 -23,24zm-90 -47l66 0 0 -376c0,-93 -75,-168 -168,-168 -93,0 -169,75 -169,168 0,18 15,33 33,33 19,0 33,-15 33,-33 0,-56 46,-102 103,-102 56,0 102,46 102,102l0 376z" id="id_109"></path>
    </g>
    <g>
     <path class="fil0" d="M1029 727l-352 0c-12,0 -23,-10 -23,-23l0 -45c0,-37 31,-68 68,-68l262 0c38,0 68,31 68,68l0 45c0,13 -10,23 -23,23zm-328 -46l305 0 0 -22c0,-12 -10,-21 -22,-21l-262 0c-11,0 -21,9 -21,21l0 22z" id="id_110"></path>
    </g>
   </g>
  </g>
 </g>
</svg>