<svg xmlns="http://www.w3.org/2000/svg" width="1433.328" height="453.234" viewBox="0 0 1433.328 453.234">
	<g id="Service" transform="translate(-846 -1131.286)">
			<path id="Path_28" data-name="Path 28" d="M35.1-63H6.3V0H24.12V-16.47H35.1c17.19,0,27.99-8.91,27.99-23.22C63.09-54.09,52.29-63,35.1-63ZM34.02-30.51h-9.9V-48.96h9.9c7.38,0,11.07,3.42,11.07,9.27C45.09-33.93,41.4-30.51,34.02-30.51ZM71.73,0h47.88V-14.13H89.55V-63H71.73Zm83.34,1.26c18.63,0,29.61-10.53,29.61-29.34V-63H167.13v34.38c0,10.8-4.5,15.12-11.88,15.12-7.47,0-11.97-4.32-11.97-15.12V-63H125.46v34.92C125.46-9.27,136.44,1.26,155.07,1.26ZM270,0l-.18-63H255.15l-21.6,36.36L211.41-63H196.74V0h16.47V-32.49L229.32-6.21h7.92l16.2-27.18L253.62,0Zm61.02-32.85a14.876,14.876,0,0,0,8.46-13.68c0-9.72-8.1-16.47-24.66-16.47H282.6V0h34.02c16.92,0,25.92-6.39,25.92-17.28C342.54-24.93,338.13-30.33,331.02-32.85ZM312.48-50.13c5.94,0,9,2.07,9,6.03,0,4.05-3.06,6.12-9,6.12H300.24V-50.13Zm2.7,37.26H300.24V-25.65h14.94c6.12,0,9.36,2.07,9.36,6.39S321.3-12.87,315.18-12.87ZM351.81,0h17.82V-63H351.81ZM424.8-63v33.57L396.99-63H382.32V0h17.46V-33.57L427.59,0h14.67V-63Zm72.27,47.43a22.64,22.64,0,0,1-9.63,2.07c-10.62,0-17.82-7.38-17.82-18,0-10.89,7.2-18,18-18,6.03,0,10.98,2.25,15.3,7.02l11.34-10.26c-6.21-7.47-15.75-11.52-27.54-11.52-20.43,0-35.1,13.59-35.1,32.76S466.29,1.26,486.36,1.26c9.18,0,19.17-2.79,26.46-8.01v-26.1H497.07ZM572.49,1.26c18.72,0,27.9-9.36,27.9-20.34,0-23.22-35.73-16.02-35.73-25.65,0-3.15,2.7-5.67,10.17-5.67a37.225,37.225,0,0,1,17.46,4.86l5.49-13.23c-6.21-3.6-14.67-5.49-22.86-5.49-18.72,0-27.9,9.18-27.9,20.43,0,23.4,35.82,16.11,35.82,26.1,0,3.06-2.88,5.13-10.26,5.13a39.728,39.728,0,0,1-20.79-6.21L545.94-5.67C551.88-1.53,562.14,1.26,572.49,1.26Zm53.73-15.03V-25.29h27.99V-38.61H626.22V-49.23h31.77V-63H608.58V0h50.58V-13.77ZM708.03,0h19.08L713.52-19.8c7.83-3.78,12.33-10.62,12.33-19.89,0-14.4-10.8-23.31-27.99-23.31h-28.8V0h17.82V-16.74h9.72Zm-.18-39.69c0,5.76-3.69,9.18-11.07,9.18h-9.9V-48.96h9.9C704.16-48.96,707.85-45.54,707.85-39.69ZM781.92-63,764.46-21.96,747.36-63H728.1L755.01,0h17.55l27-63ZM803.25,0h17.82V-63H803.25Zm61.92,1.26c11.61,0,20.97-4.23,27.09-11.88L880.92-20.88c-3.96,4.77-8.82,7.38-14.85,7.38-10.35,0-17.55-7.2-17.55-18s7.2-18,17.55-18c6.03,0,10.89,2.61,14.85,7.38l11.34-10.26c-6.12-7.65-15.48-11.88-27.09-11.88-19.98,0-34.65,13.59-34.65,32.76S845.19,1.26,865.17,1.26Zm52.65-15.03V-25.29h27.99V-38.61H917.82V-49.23h31.77V-63H900.18V0h50.58V-13.77ZM982.8,1.26c18.72,0,27.9-9.36,27.9-20.34,0-23.22-35.73-16.02-35.73-25.65,0-3.15,2.7-5.67,10.17-5.67a37.225,37.225,0,0,1,17.46,4.86l5.49-13.23c-6.21-3.6-14.67-5.49-22.86-5.49-18.72,0-27.9,9.18-27.9,20.43,0,23.4,35.82,16.11,35.82,26.1,0,3.06-2.88,5.13-10.26,5.13a39.728,39.728,0,0,1-20.79-6.21L956.25-5.67C962.19-1.53,972.45,1.26,982.8,1.26Z" transform="translate(1054 1583.26)" fill="#56c1e9"/>
			<rect id="Rectangle_3" data-name="Rectangle 3" width="147" height="3" transform="translate(846 1550)" fill="#b1b1b1"/>
			<rect id="Rectangle_4" data-name="Rectangle 4" width="147" height="3" transform="translate(2132 1550)" fill="#b1b1b1"/>
	</g>
	<g id="Logo" transform="translate(-846 -1131.286)">
		<path id="Path_27" data-name="Path 27" d="M78.624-41.184,198.12-185.64V-218.4H14.352v41.184H131.664L11.856-32.76V0H202.8V-41.184ZM394.056-83.3c0-53.976-38.064-87.048-87.36-87.048-51.168,0-89.544,36.192-89.544,86.424,0,49.92,37.752,86.424,95.784,86.424C343.2,2.5,366.6-6.864,382.2-24.648l-25.9-28.08C344.76-41.808,331.968-36.5,314.184-36.5c-25.584,0-43.368-12.792-48.048-33.7H393.12C393.432-74.256,394.056-79.56,394.056-83.3Zm-87.048-50.232c21.84,0,37.752,13.728,41.184,34.944h-82.68C268.944-120.12,284.856-133.536,307.008-133.536ZM507.624,2.5c35.256,0,63.024-15.6,75.192-42.432L545.064-60.528C536.016-44.3,522.6-37.44,507.312-37.44c-24.648,0-43.992-17.16-43.992-46.488s19.344-46.488,43.992-46.488c15.288,0,28.7,7.176,37.752,23.088l37.752-20.28c-12.168-27.456-39.936-42.744-75.192-42.744-54.6,0-93.6,35.88-93.6,86.424S453.024,2.5,507.624,2.5ZM1072.656,0l-48.984-70.2c28.392-12.168,44.928-36.192,44.928-68.952,0-48.984-36.5-79.248-94.848-79.248H879.216V0H929.76V-60.84h46.488L1018.368,0Zm-55.224-139.152c0,23.712-15.6,38.064-46.488,38.064H929.76v-76.128h41.184C1001.832-177.216,1017.432-163.176,1017.432-139.152ZM1184.976,2.5c53.352,0,92.04-35.88,92.04-86.424s-38.688-86.424-92.04-86.424-92.352,35.88-92.352,86.424S1131.624,2.5,1184.976,2.5Zm0-39.936c-24.336,0-43.056-17.472-43.056-46.488s18.72-46.488,43.056-46.488,42.744,17.472,42.744,46.488S1209.312-37.44,1184.976-37.44ZM1365.936,2.5c50.232,0,79.248-22.152,79.248-53.352,0-66.144-101.4-38.376-101.4-67.08,0-8.736,9.36-15.6,31.2-15.6a96.393,96.393,0,0,1,48.36,12.48l16.224-34.632c-15.912-9.36-41.5-14.664-64.584-14.664-48.984,0-77.688,22.464-77.688,54.288,0,67.08,101.4,39,101.4,66.456,0,9.36-8.424,15.288-30.888,15.288-20.592,0-43.368-6.552-58.344-16.224L1293.24-15.6C1308.84-5.3,1337.544,2.5,1365.936,2.5Z" transform="translate(834.144 1469)" fill="#1c4e9c"/>
		<g id="Group_12" data-name="Group 12" transform="translate(1870.8 629.702)">
			<path id="Path_33" data-name="Path 33" d="M321.41,223.9a123.905,123.905,0,1,1-247.81,0C73.6,155.063,197.505,0,197.505,0S321.41,155.787,321.41,223.9Z" transform="translate(-508.059 501.584)" fill="#56c1e9"/>
			<path id="Path_34" data-name="Path 34" d="M141.2-17.4,124.8-32.6c6-9,10.2-19.8,12.8-31.8l-25-7.8a90.027,90.027,0,0,1-7,21.8L80-74.2c19-10.4,27.4-21,27.4-35.4,0-19.8-16-32.2-40.2-32.2-26.4,0-43.6,14-43.6,34.4,0,10,4.2,19,14.4,29.6C16.6-65.8,7.2-53.6,7.2-36,7.2-13.6,29.8,2.4,60.6,2.4c18,0,34-5.6,46.8-15.6L124.2,2.4Zm-74-103.2c9,0,13.8,4.8,13.8,11.6,0,6.4-4.4,11.6-18.2,19C54.2-98.4,52-102.4,52-107.8,52-115.2,57.6-120.6,67.2-120.6ZM62.8-22c-15.4,0-25-7.2-25-17.4,0-8.6,4.6-15,17.4-22.4L89-30.2A44.761,44.761,0,0,1,62.8-22Z" transform="translate(-378.754 801.298)" fill="#fff"/>
		</g>
	</g>
</svg>
