
<svg xmlns="http://www.w3.org/2000/svg" xml:space="preserve" width="1.70666in" height="1.70666in" version="1.1" style="shape-rendering:geometricPrecision; text-rendering:geometricPrecision; image-rendering:optimizeQuality; fill-rule:evenodd; clip-rule:evenodd"
viewBox="0 0 1707 1707"
 xmlns:xlink="http://www.w3.org/1999/xlink">
 <defs>
  <style type="text/css">
   <![CDATA[
    .fil0 {fill:#004DA1}
   ]]>
  </style>
 </defs>
 <g id="Layer_x0020_1">
  <metadata id="CorelCorpID_0Corel-Layer"/>
  <g id="_396043928">
   <g>
    <g>
     <path class="fil0" d="M1146 1694l-1121 0c-14,0 -25,-11 -25,-25l0 -467c0,-93 92,-168 204,-168l151 0c6,0 11,2 17,5 115,103 311,103 426,0 4,-4 10,-5 16,-5l152 0c112,0 204,75 204,168l0 469c0,12 -11,23 -24,23zm-1097 -48l1072 0 0 -444c0,-66 -71,-120 -155,-120l-143 0c-132,111 -346,111 -476,0l-143 0c-85,0 -155,54 -155,120l0 444z"/>
    </g>
    <g>
     <path class="fil0" d="M586 977c-177,0 -354,-118 -354,-344l0 -157c0,-6 0,-11 0,-17 0,-5 0,-9 0,-15 0,-14 11,-25 25,-25 14,0 25,11 25,25 0,6 0,11 0,17 0,5 0,9 0,15l0 157c0,202 158,295 305,295 146,0 302,-93 302,-295l0 -157c0,-11 0,-19 -1,-29 -1,-14 8,-25 22,-27 14,-1 25,9 27,23 1,12 1,22 1,34l0 157c0,235 -183,343 -352,343z"/>
    </g>
    <g>
     <path class="fil0" d="M962 468l-752 0c-45,0 -82,-36 -82,-82 0,-45 37,-82 82,-82l752 0c44,0 81,36 81,82 -1,47 -37,82 -81,82zm-752 -114c-19,0 -34,15 -34,33 0,18 15,33 34,33l752 0c18,0 33,-13 33,-33 0,-18 -15,-33 -33,-33l-752 0z"/>
    </g>
    <g>
     <path class="fil0" d="M903 354c-14,0 -25,-11 -25,-25 0,-83 -32,-153 -90,-200 -53,-43 -125,-68 -202,-68 -142,0 -293,83 -293,268 0,14 -11,25 -25,25 -14,0 -25,-11 -25,-25 0,-208 172,-317 341,-317 169,0 341,109 341,317 2,15 -8,25 -22,25z"/>
    </g>
    <g>
     <path class="fil0" d="M477 601l-87 0c-14,0 -25,-11 -25,-24 0,-12 11,-25 25,-25l87 0c14,0 25,11 25,25 0,14 -11,24 -25,24z"/>
    </g>
    <g>
     <path class="fil0" d="M780 601l-88 0c-13,0 -25,-11 -25,-24 0,-12 12,-25 25,-25l88 0c14,0 25,11 25,25 0,14 -13,24 -25,24z"/>
    </g>
    <g>
     <path class="fil0" d="M315 1536c-8,0 -15,-1 -24,-3 -23,-7 -43,-21 -55,-41l-205 -356c-7,-11 -3,-26 8,-33 11,-7 26,-3 33,8l206 356c5,9 13,16 24,19 12,3 23,1 32,-4 10,-6 17,-15 20,-25 3,-11 1,-22 -4,-31l-204 -353c-7,-12 -3,-27 8,-34 11,-7 26,-3 33,9l204 353c13,21 16,45 9,68 -7,24 -23,43 -43,56 -10,7 -25,11 -42,11z"/>
    </g>
    <g>
     <path class="fil0" d="M855 1536c-16,0 -31,-4 -45,-12 -20,-13 -36,-32 -43,-56 -5,-24 -2,-47 10,-68l204 -352c7,-12 22,-16 33,-9 11,7 16,22 9,34l-204 353c-6,10 -7,21 -5,31 3,11 10,19 20,25 21,11 46,4 58,-15l204 -356c7,-11 22,-15 33,-8 12,7 16,22 9,33l-204 356c-17,27 -47,44 -79,44z"/>
    </g>
    <g>
     <g>
      <path class="fil0" d="M1390 1694c-80,0 -145,-65 -145,-146l0 -1001c-104,-54 -170,-163 -170,-281 0,-97 43,-186 118,-245 7,-6 17,-7 25,-3 9,4 14,13 14,22l0 231 316 0 0 -232c0,-10 6,-18 14,-22 9,-5 18,-3 27,2 75,60 118,150 118,246 0,118 -67,226 -170,280l0 1002c0,82 -66,147 -147,147zm-206 -1598c-39,47 -60,107 -60,169 0,105 61,201 155,244 9,4 14,13 14,22l0 1016c0,54 45,97 97,97 53,0 97,-44 97,-97l0 -1017c0,-10 6,-18 14,-22 95,-43 156,-139 156,-244 0,-63 -22,-122 -60,-170l0 189c0,18 -15,33 -33,33l-349 0c-18,0 -33,-15 -33,-33l0 -187 2 0z"/>
     </g>
     <g>
      <path class="fil0" d="M1512 1442l-244 0c-14,0 -25,-11 -25,-25 0,-14 11,-25 25,-25l244 0c14,0 25,11 25,25 0,14 -11,25 -25,25z"/>
     </g>
    </g>
    <g>
     <g>
      <path class="fil0" d="M445 1138c-1,0 -2,0 -2,0 -14,-2 -23,-14 -21,-28l25 -179c1,-14 14,-22 28,-21 13,2 22,14 20,28l-25 179c-2,11 -12,21 -25,21z"/>
     </g>
     <g>
      <path class="fil0" d="M724 1138c-12,0 -22,-9 -23,-21l-25 -178c-2,-14 7,-25 21,-27 13,-2 25,7 27,20l25 178c2,14 -7,25 -21,28 -1,0 -2,0 -4,0z"/>
     </g>
    </g>
    <g>
     <path class="fil0" d="M962 1694c-14,0 -25,-11 -25,-25l0 -276c0,-14 11,-25 25,-25 13,0 25,11 25,25l0 276c0,14 -12,25 -25,25zm-754 0c-14,0 -25,-11 -25,-25l0 -276c0,-14 11,-25 25,-25 14,0 25,11 25,25l0 276c-1,14 -11,25 -25,25zm663 -384l-571 0c-14,0 -25,-11 -25,-25 0,-14 11,-25 25,-25l571 0c14,0 25,11 25,25 0,14 -11,25 -25,25z"/>
    </g>
   </g>
  </g>
 </g>
</svg>
